<svg id="HORIZONTAL_copia" data-name="HORIZONTAL copia" xmlns="http://www.w3.org/2000/svg" viewBox="0 0 774.75 72.25"><defs><style>.cls-1{fill:#fff;}</style></defs><path class="cls-1" d="M2945.1,594.48a21.24,21.24,0,0,1-9.82,17.9,19.72,19.72,0,0,1-3.15,1.66c-.32.14-.64.27-1,.39a21.11,21.11,0,0,1-7.28,1.28H2878v-13h45.85a8.23,8.23,0,0,0,7.28-4.36,8.23,8.23,0,0,0,0-7.79,8.23,8.23,0,0,0-7.28-4.36h-25.55a21,21,0,0,1-7.33-1.31c-.33-.12-.65-.24-1-.38a19.06,19.06,0,0,1-2.17-1.08,21.27,21.27,0,0,1,0-37,19.06,19.06,0,0,1,2.17-1.08c.33-.14.65-.26,1-.38a21.25,21.25,0,0,1,7.33-1.31h45.8v13h-45.8a8.32,8.32,0,0,0,0,16.63h25.55a21.11,21.11,0,0,1,7.28,1.28c.34.12.66.25,1,.38a19.77,19.77,0,0,1,3.15,1.67,21.21,21.21,0,0,1,9.82,17.89Z" transform="translate(-2877.04 -543.66)"/><path class="cls-1" d="M3022.17,615.71h-14.41l-6.59-12.86L2985.43,572l-15.75,30.88-6.59,12.86h-14.41l6.59-12.86,30.16-59.19,30.15,59.19Z" transform="translate(-2877.04 -543.66)"/><path class="cls-1" d="M3101.42,543.66v72.05h-12.87v-45.9l-23.16,17.8-23.15-17.8v45.9h-12.87V543.66l36,27.69Z" transform="translate(-2877.04 -543.66)"/><path class="cls-1" d="M3124.57,579.69a23.2,23.2,0,0,0,23.16,23.16h36v12.86h-36a36,36,0,0,1,0-72.05h36v12.87h-36A23.2,23.2,0,0,0,3124.57,579.69Z" transform="translate(-2877.04 -543.66)"/><path class="cls-1" d="M3264.35,563.58v2.74a20.42,20.42,0,0,1-1,5.15,21.26,21.26,0,0,1-8.84,11.43,20.11,20.11,0,0,1-3.15,1.66c-.32.14-.65.26-1,.38a21.15,21.15,0,0,1-4.23,1.07l.11.22,4.12,7.12,1,1.7,11.93,20.66h-15l-17-29.48-4.18-7.24-3.31-5.73h19.29a8.33,8.33,0,0,0,8.26-7.39c0-.31,0-.61,0-.92s0-.62,0-.93a8.36,8.36,0,0,0-8.26-7.39h-32.88v59.08h-13V543.66h45.85a21.15,21.15,0,0,1,7.28,1.29c.33.12.66.24,1,.38a21.34,21.34,0,0,1,11.33,11.3,18.21,18.21,0,0,1,.66,1.79A20.41,20.41,0,0,1,3264.35,563.58Z" transform="translate(-2877.04 -543.66)"/><path class="cls-1" d="M3288.3,556.63v16.68h48.24v12.86H3288.3V603h46.59v12.86H3288.3a12.76,12.76,0,0,1-12.76-12.76V556.63a12.9,12.9,0,0,1,12.86-12.87h51.5v12.87Z" transform="translate(-2877.04 -543.66)"/><path class="cls-1" d="M3416.64,615.81h-14.41L3395.64,603l-15.74-30.88L3364.15,603l-6.59,12.86h-14.41l6.59-12.86,30.16-59.19L3410.05,603Z" transform="translate(-2877.04 -543.66)"/><path class="cls-1" d="M3467.85,543.87v12.86h-22v59.18H3433V556.73h-22V543.87Z" transform="translate(-2877.04 -543.66)"/><path class="cls-1" d="M3481.63,615.81v-72h12.86v72Z" transform="translate(-2877.04 -543.66)"/><path class="cls-1" d="M3580.52,543.76l-6.59,12.87-30.16,59.18-30.16-59.18L3507,543.76h14.41l6.58,12.87,15.75,30.88,15.75-30.88,6.59-12.87Z" transform="translate(-2877.04 -543.66)"/><path class="cls-1" d="M3602.68,556.63v16.63h49.11v12.86h-49.11V603h49.11v12.86h-49.11a12.76,12.76,0,0,1-12.76-12.76V556.63a12.9,12.9,0,0,1,12.86-12.87h49v12.87Z" transform="translate(-2877.04 -543.66)"/></svg>