<svg id="HORIZONTAL_copia" data-name="HORIZONTAL copia" xmlns="http://www.w3.org/2000/svg" viewBox="0 0 990.24 148.45"><defs><style>.cls-1,.cls-2{fill:#fff;}.cls-1{fill-rule:evenodd;}</style></defs><path class="cls-1" d="M2748.22,505.57a1.15,1.15,0,0,1,.6.2l13,7.25,17.7,9.82,15.46,8.62c2.7,1.5,5.37,3,8.09,4.49,3.8,2,7.52,4.19,11.28,6.28s7.75,4.41,11.62,6.62c.69.4.69.4.07.87-3.92,2.91-7.82,5.87-11.78,8.74-2.77,2-5.5,4.07-8.27,6.08-.52.37-.51.38,0,.71L2832,581.32c.7.43.69.42.08.95L2817.37,595l-13.81,12-10,8.65c-3.73,3.23-7.48,6.46-11.21,9.7q-4.93,4.26-9.84,8.54l-9.6,8.29-12.15,10.52c-.44.38-.9.74-1.32,1.15s-.57.27-.89,0c-1.86-1.67-3.74-3.32-5.61-5l-20.76-18.43-13.7-12.17-14.35-12.71c-3.24-2.87-6.45-5.76-9.69-8.62-4.06-3.61-8.14-7.19-12.2-10.8-3.5-3.1-7-6.23-10.48-9.34-.43-.38-.21-.52.14-.72,3.19-1.76,6.37-3.54,9.56-5.31l23.82-13.22c.56-.32.56-.32,0-.71l-17.1-12.36c-.63-.45-.63-.46,0-.82l21.2-11.54,25.21-13.72,17-9.25,6.11-3.3C2747.94,505.68,2748.11,505.62,2748.22,505.57Zm.94,136.86a.64.64,0,0,0,.38-.22l1-.89,11.25-9.76,11.51-10,10.61-9.2,12.36-10.71,11.51-10q4.86-4.22,9.72-8.42c.36-.31.35-.46-.06-.71q-4.07-2.48-8.12-5l-30.67-18.94-22.32-13.78c-.57-.36-.57-.47,0-.77,2.23-1.16,4.48-2.3,6.71-3.47a1,1,0,0,1,1.15,0l15.36,9,17.11,10.08a.92.92,0,0,0,1.17,0q6.24-4.65,12.51-9.27c.37-.26.27-.41-.06-.58-.6-.32-1.19-.65-1.78-1l-19.41-10.81-19.58-10.89-20.79-11.57a.91.91,0,0,0-1,0q-7.2,3.94-14.41,7.86l-20.15,11-18.62,10.15c-.62.34-.63.35,0,.77L2717,561.67l26.1,18.79c.66.48.67.54,0,1-1.88,1.51-3.77,3-5.64,4.51a.72.72,0,0,1-1,0Q2720.8,574.51,2705.1,563a1.24,1.24,0,0,0-1.56-.11c-5.22,2.92-10.46,5.8-15.69,8.69l-11.06,6.11c-.31.16-.46.28-.11.59,2.25,2,4.47,4,6.71,5.95l11.48,10.17,11.44,10.14,12.5,11.07,10.42,9.24,10.47,9.28,9.07,8.05A.58.58,0,0,0,2749.16,642.43Z" transform="translate(-2661.55 -505.57)"/><path class="cls-2" d="M2945.1,594.48a21.24,21.24,0,0,1-9.82,17.9,19.72,19.72,0,0,1-3.15,1.66c-.32.14-.64.27-1,.39a21.11,21.11,0,0,1-7.28,1.28H2878v-13h45.85a8.23,8.23,0,0,0,7.28-4.36,8.23,8.23,0,0,0,0-7.79,8.23,8.23,0,0,0-7.28-4.36h-25.55a21,21,0,0,1-7.33-1.31c-.33-.12-.65-.24-1-.38a19.06,19.06,0,0,1-2.17-1.08,21.27,21.27,0,0,1,0-37,19.06,19.06,0,0,1,2.17-1.08c.33-.14.65-.26,1-.38a21.25,21.25,0,0,1,7.33-1.31h45.8v13h-45.8a8.32,8.32,0,0,0,0,16.63h25.55a21.11,21.11,0,0,1,7.28,1.28c.34.12.66.25,1,.38a19.77,19.77,0,0,1,3.15,1.67,21.21,21.21,0,0,1,9.82,17.89Z" transform="translate(-2661.55 -505.57)"/><path class="cls-2" d="M3022.17,615.71h-14.41l-6.59-12.86L2985.43,572l-15.75,30.88-6.59,12.86h-14.41l6.59-12.86,30.16-59.19,30.15,59.19Z" transform="translate(-2661.55 -505.57)"/><path class="cls-2" d="M3101.42,543.66v72.05h-12.87v-45.9l-23.16,17.8-23.15-17.8v45.9h-12.87V543.66l36,27.69Z" transform="translate(-2661.55 -505.57)"/><path class="cls-2" d="M3124.57,579.69a23.2,23.2,0,0,0,23.16,23.16h36v12.86h-36a36,36,0,0,1,0-72.05h36v12.87h-36A23.2,23.2,0,0,0,3124.57,579.69Z" transform="translate(-2661.55 -505.57)"/><path class="cls-2" d="M3264.35,563.58v2.74a20.42,20.42,0,0,1-1,5.15,21.26,21.26,0,0,1-8.84,11.43,20.11,20.11,0,0,1-3.15,1.66c-.32.14-.65.26-1,.38a21.15,21.15,0,0,1-4.23,1.07l.11.22,4.12,7.12,1,1.7,11.93,20.66h-15l-17-29.48-4.18-7.24-3.31-5.73h19.29a8.33,8.33,0,0,0,8.26-7.39c0-.31,0-.61,0-.92s0-.62,0-.93a8.36,8.36,0,0,0-8.26-7.39h-32.88v59.08h-13V543.66h45.85a21.15,21.15,0,0,1,7.28,1.29c.33.12.66.24,1,.38a21.34,21.34,0,0,1,11.33,11.3,18.21,18.21,0,0,1,.66,1.79A20.41,20.41,0,0,1,3264.35,563.58Z" transform="translate(-2661.55 -505.57)"/><path class="cls-2" d="M3288.3,556.63v16.68h48.24v12.86H3288.3V603h46.59v12.86H3288.3a12.76,12.76,0,0,1-12.76-12.76V556.63a12.9,12.9,0,0,1,12.86-12.87h51.5v12.87Z" transform="translate(-2661.55 -505.57)"/><path class="cls-2" d="M3416.64,615.81h-14.41L3395.64,603l-15.74-30.88L3364.15,603l-6.59,12.86h-14.41l6.59-12.86,30.16-59.19L3410.05,603Z" transform="translate(-2661.55 -505.57)"/><path class="cls-2" d="M3467.85,543.87v12.86h-22v59.18H3433V556.73h-22V543.87Z" transform="translate(-2661.55 -505.57)"/><path class="cls-2" d="M3481.63,615.81v-72h12.86v72Z" transform="translate(-2661.55 -505.57)"/><path class="cls-2" d="M3580.52,543.76l-6.59,12.87-30.16,59.18-30.16-59.18L3507,543.76h14.41l6.58,12.87,15.75,30.88,15.75-30.88,6.59-12.87Z" transform="translate(-2661.55 -505.57)"/><path class="cls-2" d="M3602.68,556.63v16.63h49.11v12.86h-49.11V603h49.11v12.86h-49.11a12.76,12.76,0,0,1-12.76-12.76V556.63a12.9,12.9,0,0,1,12.86-12.87h49v12.87Z" transform="translate(-2661.55 -505.57)"/></svg>