<svg id="Publicdomainvectors.org" xmlns="http://www.w3.org/2000/svg" viewBox="0 0 386.36 281.88"><defs><style>.cls-1{fill:#00247d;}.cls-2{fill:#cf142b;}.cls-3{fill:#fc0;}.cls-4{fill:#fff;}</style></defs><polygon class="cls-1" points="0 186.85 386.36 186.85 386.36 96 385.24 95.03 0 95.03 0 186.85"/><path class="cls-2" d="M104.62,420a34.8,34.8,0,0,0,34.8,34.8H356.24A34.8,34.8,0,0,0,391,420V359.74H104.62Z" transform="translate(-104.62 -172.89)"/><path class="cls-2" d="M204.57,420a34.8,34.8,0,0,0,34.79,34.8H456.18A34.8,34.8,0,0,0,491,420V359.74H204.57Z" transform="translate(-104.62 -172.89)"/><path class="cls-3" d="M391,207.69a34.8,34.8,0,0,0-34.8-34.8H139.41a34.8,34.8,0,0,0-34.79,34.8v60.23H391Z" transform="translate(-104.62 -172.89)"/><path class="cls-3" d="M491,207.69a34.8,34.8,0,0,0-34.8-34.8H239.36a34.8,34.8,0,0,0-34.79,34.8v60.23H491Z" transform="translate(-104.62 -172.89)"/><g id="c"><path id="t" class="cls-4" d="M215.76,334.2l10,7.84,3.92-5" transform="translate(-104.62 -172.89)"/><path id="t-2" data-name="t" class="cls-4" d="M215.76,334.2l12.72.45-.22,6.36" transform="translate(-104.62 -172.89)"/></g><g id="c-2" data-name="c"><path id="t-3" data-name="t" class="cls-4" d="M228.16,325.84l-4.35,12,6,2.17" transform="translate(-104.62 -172.89)"/><g id="use15"><path id="t-4" data-name="t" class="cls-4" d="M228.16,325.84l3.51,12.23-6.12,1.76" transform="translate(-104.62 -172.89)"/></g></g><g id="c-3" data-name="c"><path id="t-5" data-name="t" class="cls-4" d="M240,335.05l-12.72-.44L227,341" transform="translate(-104.62 -172.89)"/><g id="use17"><path id="t-6" data-name="t" class="cls-4" d="M240,335.05l-10.55,7.12-3.56-5.28" transform="translate(-104.62 -172.89)"/></g></g><g id="c-4" data-name="c"><path id="t-7" data-name="t" class="cls-4" d="M234.83,349.11l-3.5-12.24-6.12,1.76" transform="translate(-104.62 -172.89)"/><g id="use19"><path id="t-8" data-name="t" class="cls-4" d="M234.83,349.11l-10-7.84,3.91-5" transform="translate(-104.62 -172.89)"/></g></g><g id="s"><g id="c-5" data-name="c"><path id="t-9" data-name="t" class="cls-4" d="M219.88,348.59l10.55-7.12-3.55-5.28" transform="translate(-104.62 -172.89)"/><g id="use21"><path id="t-10" data-name="t" class="cls-4" d="M219.88,348.59l4.36-12,6,2.17" transform="translate(-104.62 -172.89)"/></g></g></g><g id="c-6" data-name="c"><path id="t-11" data-name="t" class="cls-4" d="M231.23,307.41,238,318.2l5.4-3.37" transform="translate(-104.62 -172.89)"/><path id="t-12" data-name="t" class="cls-4" d="M231.23,307.41l11.8,4.77-2.39,5.9" transform="translate(-104.62 -172.89)"/></g><g id="c-7" data-name="c"><path id="t-13" data-name="t" class="cls-4" d="M245.75,303.79l-8.19,9.75,4.88,4.09" transform="translate(-104.62 -172.89)"/><g id="use15-2" data-name="use15"><path id="t-14" data-name="t" class="cls-4" d="M245.75,303.79l-.89,12.7-6.35-.45" transform="translate(-104.62 -172.89)"/></g></g><g id="c-8" data-name="c"><path id="t-15" data-name="t" class="cls-4" d="M253.67,316.48l-11.8-4.77-2.38,5.9" transform="translate(-104.62 -172.89)"/><g id="use17-2" data-name="use17"><path id="t-16" data-name="t" class="cls-4" d="M253.67,316.48l-12.35,3.08-1.53-6.18" transform="translate(-104.62 -172.89)"/></g></g><g id="c-9" data-name="c"><path id="t-17" data-name="t" class="cls-4" d="M244.06,327.94l.88-12.7-6.34-.44" transform="translate(-104.62 -172.89)"/><g id="use19-2" data-name="use19"><path id="t-18" data-name="t" class="cls-4" d="M244.06,327.94l-6.75-10.79,5.4-3.37" transform="translate(-104.62 -172.89)"/></g></g><g id="s-2" data-name="s"><g id="c-10" data-name="c"><path id="t-19" data-name="t" class="cls-4" d="M230.19,322.34l12.34-3.08L241,313.08" transform="translate(-104.62 -172.89)"/><g id="use23"><path id="t-20" data-name="t" class="cls-4" d="M230.19,322.34l8.18-9.75,4.87,4.09" transform="translate(-104.62 -172.89)"/></g></g></g><g id="c-11" data-name="c"><path id="t-21" data-name="t" class="cls-4" d="M254.93,287.53,257.57,300l6.23-1.32" transform="translate(-104.62 -172.89)"/><path id="t-22" data-name="t" class="cls-4" d="M254.93,287.53l9.46,8.51-4.26,4.73" transform="translate(-104.62 -172.89)"/></g><g id="c-12" data-name="c"><path id="t-23" data-name="t" class="cls-4" d="M269.81,289.09l-11,6.36L262,301" transform="translate(-104.62 -172.89)"/><g id="use15-3" data-name="use15"><path id="t-24" data-name="t" class="cls-4" d="M269.81,289.09l-5.18,11.62-5.81-2.58" transform="translate(-104.62 -172.89)"/></g></g><g id="c-13" data-name="c"><path id="t-25" data-name="t" class="cls-4" d="M272.92,303.72l-9.46-8.51-4.26,4.73" transform="translate(-104.62 -172.89)"/><g id="use17-3" data-name="use17"><path id="t-26" data-name="t" class="cls-4" d="M272.92,303.72l-12.66-1.33.67-6.33" transform="translate(-104.62 -172.89)"/></g></g><g id="c-14" data-name="c"><path id="t-27" data-name="t" class="cls-4" d="M260,311.2l5.18-11.62L259.32,297" transform="translate(-104.62 -172.89)"/><g id="use19-3" data-name="use19"><path id="t-28" data-name="t" class="cls-4" d="M260,311.2l-2.64-12.45,6.22-1.32" transform="translate(-104.62 -172.89)"/></g></g><g id="s-3" data-name="s"><g id="c-15" data-name="c"><path id="t-29" data-name="t" class="cls-4" d="M248.84,301.19l12.66,1.33.67-6.33" transform="translate(-104.62 -172.89)"/><g id="use25"><path id="t-30" data-name="t" class="cls-4" d="M248.84,301.19l11-6.36,3.19,5.51" transform="translate(-104.62 -172.89)"/></g></g></g><g id="c-16" data-name="c"><path id="t-31" data-name="t" class="cls-4" d="M284,276.94l-1.77,12.61,6.3.88" transform="translate(-104.62 -172.89)"/><path id="t-32" data-name="t" class="cls-4" d="M284,276.94l6,11.24-5.62,3" transform="translate(-104.62 -172.89)"/></g><g id="c-17" data-name="c"><path id="t-33" data-name="t" class="cls-4" d="M297.45,283.5l-12.54,2.21L286,292" transform="translate(-104.62 -172.89)"/><g id="use15-4" data-name="use15"><path id="t-34" data-name="t" class="cls-4" d="M297.45,283.5l-8.84,9.16L284,288.24" transform="translate(-104.62 -172.89)"/></g></g><g id="c-18" data-name="c"><path id="t-35" data-name="t" class="cls-4" d="M295.36,298.32l-6-11.24-5.62,3" transform="translate(-104.62 -172.89)"/><g id="use17-4" data-name="use17"><path id="t-36" data-name="t" class="cls-4" d="M295.36,298.32l-11.43-5.58,2.79-5.72" transform="translate(-104.62 -172.89)"/></g></g><g id="c-19" data-name="c"><path id="t-37" data-name="t" class="cls-4" d="M280.63,300.92l8.84-9.16-4.58-4.42" transform="translate(-104.62 -172.89)"/><g id="use19-4" data-name="use19"><path id="t-38" data-name="t" class="cls-4" d="M280.63,300.92l1.77-12.61,6.3.89" transform="translate(-104.62 -172.89)"/></g></g><g id="s-4" data-name="s"><g id="c-20" data-name="c"><path id="t-39" data-name="t" class="cls-4" d="M273.61,287.71l11.44,5.57,2.79-5.71" transform="translate(-104.62 -172.89)"/><g id="use27"><path id="t-40" data-name="t" class="cls-4" d="M273.61,287.71l12.53-2.21,1.11,6.26" transform="translate(-104.62 -172.89)"/></g></g></g><g id="c-21" data-name="c"><path id="t-41" data-name="t" class="cls-4" d="M314.94,276.94l-6,11.24,5.62,3" transform="translate(-104.62 -172.89)"/><path id="t-42" data-name="t" class="cls-4" d="M314.94,276.94l1.77,12.61-6.3.88" transform="translate(-104.62 -172.89)"/></g><g id="c-22" data-name="c"><path id="t-43" data-name="t" class="cls-4" d="M325.33,287.71,312.8,285.5l-1.11,6.26" transform="translate(-104.62 -172.89)"/><g id="use15-5" data-name="use15"><path id="t-44" data-name="t" class="cls-4" d="M325.33,287.71l-11.44,5.57-2.79-5.71" transform="translate(-104.62 -172.89)"/></g></g><g id="c-23" data-name="c"><path id="t-45" data-name="t" class="cls-4" d="M318.31,300.92l-1.77-12.61-6.3.89" transform="translate(-104.62 -172.89)"/><g id="use17-5" data-name="use17"><path id="t-46" data-name="t" class="cls-4" d="M318.31,300.92l-8.84-9.16,4.57-4.42" transform="translate(-104.62 -172.89)"/></g></g><g id="c-24" data-name="c"><path id="t-47" data-name="t" class="cls-4" d="M303.57,298.32,315,292.74,312.22,287" transform="translate(-104.62 -172.89)"/><g id="use19-5" data-name="use19"><path id="t-48" data-name="t" class="cls-4" d="M303.57,298.32l6-11.24,5.62,3" transform="translate(-104.62 -172.89)"/></g></g><g id="s-5" data-name="s"><g id="c-25" data-name="c"><path id="t-49" data-name="t" class="cls-4" d="M301.49,283.5l8.84,9.16,4.58-4.42" transform="translate(-104.62 -172.89)"/><g id="use29"><path id="t-50" data-name="t" class="cls-4" d="M301.49,283.5,314,285.71,312.92,292" transform="translate(-104.62 -172.89)"/></g></g></g><g id="c-26" data-name="c"><path id="t-51" data-name="t" class="cls-4" d="M344,287.53,334.55,296l4.26,4.73" transform="translate(-104.62 -172.89)"/><path id="t-52" data-name="t" class="cls-4" d="M344,287.53,341.36,300l-6.22-1.32" transform="translate(-104.62 -172.89)"/></g><g id="c-27" data-name="c"><path id="t-53" data-name="t" class="cls-4" d="M350.1,301.19l-11-6.36-3.18,5.51" transform="translate(-104.62 -172.89)"/><g id="use15-6" data-name="use15"><path id="t-54" data-name="t" class="cls-4" d="M350.1,301.19l-12.66,1.33-.67-6.33" transform="translate(-104.62 -172.89)"/></g></g><g id="s-6" data-name="s"><g id="c-28" data-name="c"><path id="t-55" data-name="t" class="cls-4" d="M339,311.2l2.64-12.45-6.22-1.32" transform="translate(-104.62 -172.89)"/><path id="t-56" data-name="t" class="cls-4" d="M339,311.2l-5.18-11.62,5.81-2.59" transform="translate(-104.62 -172.89)"/></g><g id="c-29" data-name="c"><path id="t-57" data-name="t" class="cls-4" d="M326,303.72l12.66-1.33-.67-6.33" transform="translate(-104.62 -172.89)"/><path id="t-58" data-name="t" class="cls-4" d="M326,303.72l9.46-8.51,4.26,4.73" transform="translate(-104.62 -172.89)"/></g><g id="c-30" data-name="c"><path id="t-59" data-name="t" class="cls-4" d="M329.13,289.09l5.18,11.62,5.81-2.58" transform="translate(-104.62 -172.89)"/><path id="t-60" data-name="t" class="cls-4" d="M329.13,289.09l11,6.36L337,301" transform="translate(-104.62 -172.89)"/></g></g><g id="s-7" data-name="s"><g id="c-31" data-name="c"><path id="t-61" data-name="t" class="cls-4" d="M367.71,307.41l-11.8,4.77,2.38,5.9" transform="translate(-104.62 -172.89)"/><path id="t-62" data-name="t" class="cls-4" d="M367.71,307.41,361,318.2l-5.4-3.37" transform="translate(-104.62 -172.89)"/></g><g id="c-32" data-name="c"><path id="t-63" data-name="t" class="cls-4" d="M368.75,322.34l-8.18-9.75-4.87,4.09" transform="translate(-104.62 -172.89)"/><path id="t-64" data-name="t" class="cls-4" d="M368.75,322.34l-12.34-3.08,1.53-6.18" transform="translate(-104.62 -172.89)"/></g><g id="c-33" data-name="c"><path id="t-65" data-name="t" class="cls-4" d="M354.88,327.94l6.75-10.79-5.4-3.37" transform="translate(-104.62 -172.89)"/><path id="t-66" data-name="t" class="cls-4" d="M354.88,327.94l-.88-12.7,6.34-.44" transform="translate(-104.62 -172.89)"/></g><g id="c-34" data-name="c"><path id="t-67" data-name="t" class="cls-4" d="M345.27,316.48l12.34,3.08,1.54-6.18" transform="translate(-104.62 -172.89)"/><path id="t-68" data-name="t" class="cls-4" d="M345.27,316.48l11.8-4.77,2.38,5.9" transform="translate(-104.62 -172.89)"/></g><g id="c-35" data-name="c"><path id="t-69" data-name="t" class="cls-4" d="M353.19,303.79l.89,12.7,6.35-.45" transform="translate(-104.62 -172.89)"/><path id="t-70" data-name="t" class="cls-4" d="M353.19,303.79l8.18,9.75-4.87,4.09" transform="translate(-104.62 -172.89)"/></g></g><g id="s-8" data-name="s"><g id="c-36" data-name="c"><path id="t-71" data-name="t" class="cls-4" d="M383.18,334.2l-12.72.45.22,6.36" transform="translate(-104.62 -172.89)"/><path id="t-72" data-name="t" class="cls-4" d="M383.18,334.2l-10,7.84-3.92-5" transform="translate(-104.62 -172.89)"/></g><g id="c-37" data-name="c"><path id="t-73" data-name="t" class="cls-4" d="M379.06,348.59l-4.36-12-6,2.17" transform="translate(-104.62 -172.89)"/><path id="t-74" data-name="t" class="cls-4" d="M379.06,348.59l-10.56-7.12,3.56-5.28" transform="translate(-104.62 -172.89)"/></g><g id="c-38" data-name="c"><path id="t-75" data-name="t" class="cls-4" d="M364.1,349.11l10-7.84-3.91-5" transform="translate(-104.62 -172.89)"/><path id="t-76" data-name="t" class="cls-4" d="M364.1,349.11l3.51-12.24,6.12,1.76" transform="translate(-104.62 -172.89)"/></g><g id="c-39" data-name="c"><path id="t-77" data-name="t" class="cls-4" d="M359,335.05l10.55,7.12,3.56-5.28" transform="translate(-104.62 -172.89)"/><path id="t-78" data-name="t" class="cls-4" d="M359,335.05l12.72-.44.22,6.35" transform="translate(-104.62 -172.89)"/></g><g id="c-40" data-name="c"><path id="t-79" data-name="t" class="cls-4" d="M370.78,325.84l-3.51,12.23,6.11,1.76" transform="translate(-104.62 -172.89)"/><path id="t-80" data-name="t" class="cls-4" d="M370.78,325.84l4.35,12-6,2.17" transform="translate(-104.62 -172.89)"/></g></g></svg>