<svg id="Capa_1" data-name="Capa 1" xmlns="http://www.w3.org/2000/svg" viewBox="0 0 1004.46 901.85"><defs><style>.cls-1{fill:#fff;fill-rule:evenodd;}</style></defs><path class="cls-1" d="M655.21,1092.89a4.22,4.22,0,0,1-2.74-1.49L588,1034.2q-37.18-33-74.38-66t-74.13-65.67l-88.83-78.7q-40.65-36-81.29-72.09-40.8-36.16-81.63-72.31c-15.9-14.1-31.74-28.26-47.7-42.29-2.52-2.21-1.4-3,.76-4.21q39.35-21.65,78.64-43.38,55.8-30.83,111.53-61.8c4.31-2.41,7.19-2,11.07.81q111.44,81.63,223.05,163.06c2.58,1.89,4.55,2.5,7.37.2,13.28-10.78,26.73-21.35,40.1-32,4.46-3.56,4.39-4-.32-7.41L426.73,518.83Q346.84,461.29,267,403.75c-4.14-3-4.14-3.08.29-5.49q66.18-36.09,132.37-72.15Q471.25,287,542.86,247.92,594.07,220,645.31,192.07a6.38,6.38,0,0,1,7,0q73.88,41.24,147.85,82.3,69.55,38.69,139.12,77.35,69,38.4,138,76.86c4.21,2.34,8.4,4.7,12.65,6.95,2.35,1.25,3,2.28.45,4.17q-44.54,32.85-89,65.86c-3.12,2.33-5.45,1.58-8.32-.12q-60.78-35.88-121.61-71.65-54.62-32.15-109.19-64.3a7.51,7.51,0,0,0-8.19-.25c-15.86,8.31-31.82,16.45-47.73,24.67-4.07,2.1-4.06,2.93,0,5.43l158.65,98,218,134.64c19.22,11.87,38.42,23.76,57.72,35.51,2.9,1.77,3,2.8.4,5q-34.62,29.84-69.09,59.85-40.9,35.46-81.82,70.89-43.93,38.06-87.88,76.12-37.73,32.7-75.4,65.43-40.9,35.46-81.82,70.88l-80,69.34c-2.42,2.09-4.83,4.22-7.24,6.33A4.73,4.73,0,0,1,655.21,1092.89Z" transform="translate(-138.58 -191.04)"/></svg>