<svg id="Capa_1" data-name="Capa 1" xmlns="http://www.w3.org/2000/svg" viewBox="0 0 1215.06 1055.23"><defs><style>.cls-1{fill:#fff;fill-rule:evenodd;}</style></defs><path class="cls-1" d="M648.57,120a7.92,7.92,0,0,1,4.23,1.42Q699,147.2,745.24,173,808.12,207.91,871,242.8q55,30.6,110,61.29c19.14,10.66,38.13,21.62,57.48,31.9,27,14.36,53.46,29.77,80.17,44.68,27.66,15.43,55.07,31.31,82.57,47,5,2.83,5,2.87.52,6.17-27.88,20.74-55.6,41.72-83.73,62.12-19.68,14.28-39.09,28.94-58.76,43.23-3.68,2.67-3.66,2.73.09,5q92.19,57.12,184.4,114.22c5,3.08,5,3,.63,6.76q-52.12,45.16-104.21,90.35-49.1,42.54-98.2,85-35.44,30.71-70.85,61.48-39.84,34.51-79.75,69-35,30.3-69.93,60.68-34.06,29.52-68.22,59-43.19,37.37-86.37,74.77c-3.13,2.71-6.4,5.27-9.36,8.16-2.37,2.32-4.07,1.94-6.38-.13-13.22-11.89-26.56-23.64-39.85-35.44q-73.77-65.47-147.54-131Q415,963.86,366.29,920.58q-51-45.21-102.05-90.33c-23-20.38-45.84-40.92-68.83-61.3-28.88-25.62-57.88-51.1-86.75-76.72C83.77,670.13,59,647.88,34.14,625.79c-3-2.68-1.49-3.69,1-5.07q34-18.86,68-37.77l169.28-94c4-2.23,4-2.27.23-5L151.11,396.07c-4.45-3.22-4.48-3.26.22-5.82q75.35-41,150.71-82.05l179.22-97.57Q541.65,177.77,602,144.9q21.66-11.78,43.37-23.45C646.56,120.83,647.81,120.35,648.57,120Zm6.65,972.88a4.74,4.74,0,0,0,2.72-1.56c2.41-2.11,4.82-4.24,7.24-6.33l80-69.34q40.91-35.45,81.82-70.88,37.71-32.7,75.4-65.43,43.92-38.08,87.88-76.12,40.92-35.44,81.82-70.89,34.54-29.93,69.09-59.85c2.57-2.21,2.5-3.24-.4-5-19.3-11.75-38.5-23.64-57.72-35.51L865,497.33l-158.65-98c-4.06-2.5-4.07-3.33,0-5.43,15.91-8.22,31.87-16.36,47.73-24.67a7.51,7.51,0,0,1,8.19.25q54.54,32.24,109.19,64.3,60.81,35.79,121.61,71.65c2.87,1.7,5.2,2.45,8.32.12q44.39-33.07,89-65.86c2.57-1.89,1.9-2.92-.45-4.17-4.25-2.25-8.44-4.61-12.65-6.95q-69-38.43-138-76.86Q869.73,313,800.15,274.39q-73.95-41.12-147.85-82.3a6.38,6.38,0,0,0-7,0q-51.18,28-102.45,55.85Q471.22,287,399.62,326.11q-66.18,36.09-132.37,72.15c-4.43,2.41-4.43,2.5-.29,5.49q79.88,57.56,159.77,115.08L612.22,652.39c4.71,3.39,4.78,3.85.32,7.41-13.37,10.69-26.82,21.26-40.1,32-2.82,2.3-4.79,1.69-7.37-.2Q453.55,610.1,342,528.58c-3.88-2.84-6.76-3.22-11.07-.81q-55.63,31.11-111.53,61.8-39.3,21.72-78.64,43.38c-2.16,1.19-3.28,2-.76,4.21,16,14,31.8,28.19,47.7,42.29q40.82,36.16,81.63,72.31,40.66,36,81.29,72.09l88.83,78.7q37.06,32.84,74.13,65.67t74.38,66l64.49,57.2A4.22,4.22,0,0,0,655.22,1092.89Z" transform="translate(-32.47 -120.01)"/></svg>